<svg xmlns="http://www.w3.org/2000/svg" width="34" height="34" viewBox="0 0 34 34"><defs><style>.a{fill:#f4f6fc;}.b{fill:#b0b7db;}</style></defs><g transform="translate(113 1269) rotate(180)"><circle class="a" cx="17" cy="17" r="17" transform="translate(79 1235)"/><path class="b" d="M11.175,11.077,4.213,18.039a.86.86,0,0,1-1.216,0l-.812-.812a.86.86,0,0,1,0-1.214L7.7,10.469,2.184,4.926a.86.86,0,0,1,0-1.214L3,2.9a.86.86,0,0,1,1.216,0l6.962,6.962A.86.86,0,0,1,11.175,11.077Z" transform="translate(102.427 1262.469) rotate(180)"/></g></svg>