<svg xmlns="http://www.w3.org/2000/svg" xmlns:xlink="http://www.w3.org/1999/xlink" width="66.351" height="68.943" viewBox="0 0 66.351 68.943"><defs><style>.a{fill:url(#a);}</style><linearGradient id="a" x1="1.255" y1="-0.062" x2="0.275" y2="0.951" gradientUnits="objectBoundingBox"><stop offset="0" stop-color="#006fbe"/><stop offset="1" stop-color="#e40066"/></linearGradient></defs><g transform="translate(-454.189 -274)"><path class="a" d="M469.782,281.036c0-1.346-.034-2.467.007-3.585a3.522,3.522,0,0,1,7.037-.148c.087,1.166.016,2.344.016,3.629H499.7c0-1.158-.027-2.27.006-3.38a3.523,3.523,0,1,1,7.047-.014c.037,1.113.007,2.229.007,3.436.552.03.948.064,1.346.073a12.354,12.354,0,0,1,12.351,12.192q.176,18.765,0,37.532a12.268,12.268,0,0,1-12.628,12.173H466.91a12.285,12.285,0,0,1-12.629-12.181q-.19-18.765,0-37.532A12.4,12.4,0,0,1,466.8,281.037C467.716,281.03,468.631,281.036,469.782,281.036ZM461.42,305.4a7.62,7.62,0,0,0-.132.97c-.006,8-.044,16,.014,24.005.024,3.311,2.376,5.5,5.757,5.5q20,.022,40.009,0c4.349,0,6.263-1.924,6.275-6.315.02-7.591,0-15.183-.012-22.775,0-.443-.073-.886-.117-1.387Zm-.081-7.225h52.11c0-1.466.008-2.838,0-4.208a8.045,8.045,0,0,0-.1-1.375,5.286,5.286,0,0,0-5.264-4.489q-20.682-.05-41.364-.016a5.268,5.268,0,0,0-5.339,4.759A51.948,51.948,0,0,0,461.339,298.18Z" transform="translate(0 0)"/><path class="a" d="M523.11,391.777c4.408,0,8.817-.01,13.225,0,2.576.008,3.98,1.224,4.006,3.417s-1.553,3.639-4.047,3.643q-13.225.024-26.451,0a3.632,3.632,0,0,1-3.447-1.6,3.516,3.516,0,0,1,3.027-5.462c4.561-.053,9.124-.014,13.686-.014Z" transform="translate(-35.741 -81.514)"/><path class="a" d="M518.759,438.67c-2.969,0-5.939.025-8.908-.008-2.565-.028-3.89-1.275-3.865-3.543.024-2.214,1.429-3.463,3.96-3.466,5.99-.006,11.98-.013,17.97.022,2.488.014,3.768,1.353,3.672,3.7a3.084,3.084,0,0,1-3.308,3.267c-3.172.079-6.347.021-9.521.021Z" transform="translate(-35.855 -109.129)"/></g></svg>